<svg width="391" height="350" viewBox="0 0 391 350" fill="none" xmlns="http://www.w3.org/2000/svg">
<path d="M391.189 15.5417L207.191 344.562C203.392 351.355 193.632 351.395 189.776 344.635L2.12943 15.5734C-2.0714 8.20674 4.22793 -0.716365 12.5758 0.775735L181.548 0.822938C182.723 1.03294 206.016 1.03704 207.191 0.822938H380.667C388.987 -0.693462 395.316 8.16054 391.189 15.5417Z" fill="url(#paint0_linear_608_11)"/>
<path d="M275.579 4.09655L139.415 30.7774C137.177 31.2159 135.52 33.1125 135.385 35.3886L127.009 176.852C126.812 180.184 129.872 182.77 133.124 182.02L171.034 173.271C174.581 172.453 177.786 175.577 177.057 179.144L165.794 234.297C165.036 238.009 168.521 241.183 172.146 240.082L195.561 232.968C199.191 231.866 202.679 235.049 201.911 238.764L184.012 325.397C182.892 330.816 190.1 333.771 193.106 329.125L195.114 326.022L306.068 104.594C307.926 100.887 304.722 96.6592 300.65 97.445L261.628 104.976C257.961 105.683 254.841 102.268 255.876 98.6805L281.345 10.389C282.381 6.79529 279.25 3.37733 275.579 4.09655Z" fill="url(#paint1_linear_608_11)"/>
<defs>
<linearGradient id="paint0_linear_608_11" x1="-12.9999" y1="-1.00007" x2="216" y2="310" gradientUnits="userSpaceOnUse">
<stop stop-color="#41D1FF"/>
</linearGradient>
<linearGradient id="paint1_linear_608_11" x1="177.265" y1="11.3403" x2="218.69" y2="295.511" gradientUnits="userSpaceOnUse">
<stop offset="0.0833333" stop-color="#FFDD35"/>
</linearGradient>
</defs>
</svg>
